<svg xmlns="http://www.w3.org/2000/svg" viewBox="0 0 320 210" role="img" aria-labelledby="title"><title id="title">正負電荷周圍的等位線與由正電荷指向負電荷的電力線</title><rect width="320" height="210" fill="#f5f8fc"/><g><circle cx="86" cy="105" r="28" fill="none" stroke="#d95862" stroke-width="2" opacity=".65"/><circle cx="86" cy="105" r="44" fill="none" stroke="#d95862" stroke-width="2" opacity=".65"/><circle cx="86" cy="105" r="61" fill="none" stroke="#d95862" stroke-width="2" opacity=".65"/><circle cx="234" cy="105" r="28" fill="none" stroke="#2879b9" stroke-width="2" opacity=".65"/><circle cx="234" cy="105" r="44" fill="none" stroke="#2879b9" stroke-width="2" opacity=".65"/><circle cx="234" cy="105" r="61" fill="none" stroke="#2879b9" stroke-width="2" opacity=".65"/><circle cx="86" cy="105" r="15" fill="#d95862"/><circle cx="234" cy="105" r="15" fill="#2879b9"/><text x="81" y="110" fill="#fff" font-family="Arial, sans-serif" font-size="14">+</text><text x="229" y="109" fill="#fff" font-family="Arial, sans-serif" font-size="14">−</text><path d="M110 105 L211 105" fill="none" stroke="#168c83" stroke-width="3" stroke-linecap="round" stroke-linejoin="round"/><path d="M203.1 109.3 L211 105 L203.1 100.7" fill="none" stroke="#168c83" stroke-width="3" stroke-linecap="round" stroke-linejoin="round"/><path d="M91 83 C130 16 190 16 229 83" fill="none" stroke="#168c83" stroke-width="3" stroke-linecap="round" stroke-linejoin="round"/><path d="M155 36 L170 37" fill="none" stroke="#168c83" stroke-width="3" stroke-linecap="round" stroke-linejoin="round"/><path d="M161.8 40.8 L170 37 L162.4 32.2" fill="none" stroke="#168c83" stroke-width="3" stroke-linecap="round" stroke-linejoin="round"/><path d="M91 127 C130 194 190 194 229 127" fill="none" stroke="#168c83" stroke-width="3" stroke-linecap="round" stroke-linejoin="round"/><path d="M155 174 L170 173" fill="none" stroke="#168c83" stroke-width="3" stroke-linecap="round" stroke-linejoin="round"/><path d="M162.4 177.8 L170 173 L161.8 169.2" fill="none" stroke="#168c83" stroke-width="3" stroke-linecap="round" stroke-linejoin="round"/></g></svg>
