<svg xmlns="http://www.w3.org/2000/svg" viewBox="0 0 320 210" role="img" aria-labelledby="title"><title id="title">原子核周圍的閉合環形物質波，對應整數個波長</title><rect width="320" height="210" fill="#f5f8fc"/><g><circle cx="160" cy="106" r="63" fill="none" stroke="#b7c4cf" stroke-width="2" opacity=".65"/><path d="M223.00 106.00 L224.54 107.69 L226.00 109.46 L227.33 111.30 L228.50 113.20 L229.47 115.15 L230.21 117.12 L230.71 119.10 L230.93 121.08 L230.86 123.01 L230.51 124.89 L229.88 126.70 L228.96 128.41 L227.79 130.00 L226.37 131.48 L224.74 132.82 L222.92 134.02 L220.96 135.08 L218.89 136.00 L216.74 136.81 L214.56 137.50 L212.38 138.10 L210.24 138.63 L208.18 139.11 L206.21 139.58 L204.37 140.05 L202.67 140.56 L201.13 141.13 L199.75 141.79 L198.53 142.57 L197.48 143.48 L196.57 144.53 L195.79 145.75 L195.13 147.13 L194.56 148.67 L194.05 150.37 L193.58 152.21 L193.11 154.18 L192.63 156.24 L192.10 158.38 L191.50 160.56 L190.81 162.74 L190.00 164.89 L189.08 166.96 L188.02 168.92 L186.82 170.74 L185.48 172.37 L184.00 173.79 L182.41 174.96 L180.70 175.88 L178.89 176.51 L177.01 176.86 L175.08 176.93 L173.10 176.71 L171.12 176.21 L169.15 175.47 L167.20 174.50 L165.30 173.33 L163.46 172.00 L161.69 170.54 L160.00 169.00 L158.39 167.41 L156.86 165.83 L155.41 164.28 L154.03 162.81 L152.70 161.45 L151.41 160.23 L150.14 159.18 L148.88 158.32 L147.60 157.66 L146.28 157.19 L144.91 156.94 L143.47 156.87 L141.94 156.99 L140.32 157.26 L138.60 157.67 L136.77 158.18 L134.83 158.77 L132.80 159.38 L130.69 159.99 L128.50 160.56 L126.27 161.05 L124.00 161.43 L121.74 161.66 L119.51 161.72 L117.34 161.59 L115.26 161.25 L113.30 160.68 L111.48 159.89 L109.83 158.86 L108.38 157.62 L107.14 156.17 L106.11 154.52 L105.32 152.70 L104.75 150.74 L104.41 148.66 L104.28 146.49 L104.34 144.26 L104.57 142.00 L104.95 139.73 L105.44 137.50 L106.01 135.31 L106.62 133.20 L107.23 131.17 L107.82 129.23 L108.33 127.40 L108.74 125.68 L109.01 124.06 L109.13 122.53 L109.06 121.09 L108.81 119.72 L108.34 118.40 L107.68 117.12 L106.82 115.86 L105.77 114.59 L104.55 113.30 L103.19 111.97 L101.72 110.59 L100.17 109.14 L98.59 107.61 L97.00 106.00 L95.46 104.31 L94.00 102.54 L92.67 100.70 L91.50 98.80 L90.53 96.85 L89.79 94.88 L89.29 92.90 L89.07 90.92 L89.14 88.99 L89.49 87.11 L90.12 85.30 L91.04 83.59 L92.21 82.00 L93.63 80.52 L95.26 79.18 L97.08 77.98 L99.04 76.92 L101.11 76.00 L103.26 75.19 L105.44 74.50 L107.62 73.90 L109.76 73.37 L111.82 72.89 L113.79 72.42 L115.63 71.95 L117.33 71.44 L118.87 70.87 L120.25 70.21 L121.47 69.43 L122.52 68.52 L123.43 67.47 L124.21 66.25 L124.87 64.87 L125.44 63.33 L125.95 61.63 L126.42 59.79 L126.89 57.82 L127.37 55.76 L127.90 53.62 L128.50 51.44 L129.19 49.26 L130.00 47.11 L130.92 45.04 L131.98 43.08 L133.18 41.26 L134.52 39.63 L136.00 38.21 L137.59 37.04 L139.30 36.12 L141.11 35.49 L142.99 35.14 L144.92 35.07 L146.90 35.29 L148.88 35.79 L150.85 36.53 L152.80 37.50 L154.70 38.67 L156.54 40.00 L158.31 41.46 L160.00 43.00 L161.61 44.59 L163.14 46.17 L164.59 47.72 L165.97 49.19 L167.30 50.55 L168.59 51.77 L169.86 52.82 L171.12 53.68 L172.40 54.34 L173.72 54.81 L175.09 55.06 L176.53 55.13 L178.06 55.01 L179.68 54.74 L181.40 54.33 L183.23 53.82 L185.17 53.23 L187.20 52.62 L189.31 52.01 L191.50 51.44 L193.73 50.95 L196.00 50.57 L198.26 50.34 L200.49 50.28 L202.66 50.41 L204.74 50.75 L206.70 51.32 L208.52 52.11 L210.17 53.14 L211.62 54.38 L212.86 55.83 L213.89 57.48 L214.68 59.30 L215.25 61.26 L215.59 63.34 L215.72 65.51 L215.66 67.74 L215.43 70.00 L215.05 72.27 L214.56 74.50 L213.99 76.69 L213.38 78.80 L212.77 80.83 L212.18 82.77 L211.67 84.60 L211.26 86.32 L210.99 87.94 L210.87 89.47 L210.94 90.91 L211.19 92.28 L211.66 93.60 L212.32 94.88 L213.18 96.14 L214.23 97.41 L215.45 98.70 L216.81 100.03 L218.28 101.41 L219.83 102.86 L221.41 104.39 L223.00 106.00" fill="none" stroke="#168c83" stroke-width="3" stroke-linecap="round" stroke-linejoin="round"/><circle cx="160" cy="106" r="10" fill="#d95862"/><text x="156" y="111" fill="#fff" font-family="Arial, sans-serif" font-size="14">+</text><text x="117" y="198" fill="#46566b" font-family="Arial, sans-serif" font-size="14">2πr = nλ</text></g></svg>
