<svg xmlns="http://www.w3.org/2000/svg" viewBox="0 0 320 210" role="img" aria-labelledby="title"><title id="title">打點計時器在紙帶上留下逐漸拉開的等時位置點</title><rect width="320" height="210" fill="#f5f8fc"/><rect x="25" y="34" width="57" height="72" rx="7" fill="#405a73"/><circle cx="53.5" cy="65" r="9" fill="#efb451"/><path d="M54 105V139" stroke="#dc8431" stroke-width="4"/><rect x="26" y="127" width="268" height="31" rx="5" fill="#eadfc5"/><g fill="#35495c"><circle cx="54" cy="142.5" r="3"/><circle cx="70" cy="142.5" r="3"/><circle cx="88" cy="142.5" r="3"/><circle cx="109" cy="142.5" r="3"/><circle cx="134" cy="142.5" r="3"/><circle cx="164" cy="142.5" r="3"/><circle cx="200" cy="142.5" r="3"/><circle cx="243" cy="142.5" r="3"/></g><g fill="#d65f5f"><circle cx="54" cy="142.5" r="6"/><circle cx="134" cy="142.5" r="6"/><circle cx="243" cy="142.5" r="6"/></g><path d="M93 70H226" stroke="#2879b9" stroke-width="4" stroke-linecap="round"/><path d="m217 63 12 7-12 7" fill="none" stroke="#2879b9" stroke-width="4" stroke-linecap="round" stroke-linejoin="round"/><rect x="232" y="50" width="53" height="37" rx="5" fill="#2879b9"/><circle cx="244" cy="92" r="7" fill="#405a73"/><circle cx="274" cy="92" r="7" fill="#405a73"/><text x="159" y="188" fill="#46566b" font-family="Arial, sans-serif" font-size="15" text-anchor="middle">固定 Δt · 點距逐漸增加</text></svg>
